<svg xmlns="http://www.w3.org/2000/svg" version="1.0" width="225.000000" height="225.000000" preserveAspectRatio="xMidYMid meet"><rect id="backgroundrect" width="100%" height="100%" x="0" y="0" fill="none" stroke="none"/>
<metadata>
Created by potrace 1.16, written by Peter Selinger 2001-2019
</metadata>

<g class="currentLayer" style=""><title>Layer 1</title><g transform="translate(0,225) scale(0.10000000149011612,-0.10000000149011612) " fill="#6d6d6d" stroke="none" id="svg_1" class="selected" fill-opacity="1">
<path d="M42 2080 c-22 -9 -42 -46 -42 -76 0 -8 11 -26 25 -39 20 -20 34 -25 78 -25 l54 0 147 -560 c81 -307 154 -579 162 -604 33 -96 141 -181 246 -193 l50 -6 -32 -25 c-39 -31 -80 -114 -80 -163 0 -142 132 -250 268 -219 173 39 231 261 98 378 l-37 32 406 0 406 0 -37 -32 c-100 -88 -98 -238 3 -330 161 -144 411 19 352 229 -9 33 -27 62 -60 95 l-46 46 32 6 c83 16 183 121 204 216 14 59 15 845 1 869 -5 10 -17 23 -27 27 -10 5 -429 11 -932 14 l-915 5 -42 155 c-50 187 -49 185 -80 199 -29 13 -169 14 -202 1z m2058 -790 l0 -280 -770 0 -770 0 -10 23 c-9 22 -140 517 -140 530 0 4 380 7 845 7 l845 0 0 -280z m-5 -447 c-10 -41 -41 -79 -79 -97 -30 -14 -104 -16 -671 -16 -684 0 -662 -2 -712 52 -24 26 -45 73 -36 82 4 3 344 6 756 6 l749 0 -7 -27z m-1181 -404 c33 -26 35 -73 4 -106 -27 -29 -57 -29 -92 -2 -52 41 -20 124 50 128 6 1 23 -8 38 -20z m1039 -11 c26 -30 22 -73 -9 -97 -15 -12 -34 -21 -44 -21 -34 0 -70 39 -70 75 0 67 79 95 123 43z" id="svg_2" fill="#6d6d6d" fill-opacity="1"/>
</g></g></svg>