<svg xmlns="http://www.w3.org/2000/svg" version="1.0" width="225.000000" height="225.000000" preserveAspectRatio="xMidYMid meet" style=""><rect id="backgroundrect" width="100%" height="100%" x="0" y="0" fill="none" stroke="none"/>


<g class="currentLayer" style=""><title>Layer 1</title><g transform="translate(0,225) scale(0.10000000149011612,-0.10000000149011612) " fill="#6d6d6d" stroke="none" id="svg_1" class="selected" fill-opacity="1">
<path d="M1521 2198 c-135 -36 -196 -49 -199 -40 -7 21 -71 53 -109 54 -44 0 -194 -37 -235 -58 -31 -16 -68 -68 -68 -96 0 -20 -13 -24 -274 -90 -93 -23 -183 -52 -200 -63 -17 -11 -37 -38 -45 -59 -13 -33 -13 -44 0 -79 16 -47 66 -87 109 -87 24 0 207 46 1075 269 209 54 232 62 257 90 15 17 31 43 34 58 10 36 -15 102 -47 125 -46 34 -91 31 -298 -24z" id="svg_2" fill="#6d6d6d" fill-opacity="1"/>
<path d="M515 1561 c-51 -23 -101 -80 -115 -129 -10 -38 2 -174 94 -1138 8 -90 20 -163 30 -181 21 -43 79 -90 123 -102 54 -15 939 -15 984 0 54 18 100 58 120 104 26 60 124 1261 107 1321 -14 51 -81 118 -133 133 -27 7 -221 11 -605 11 -525 0 -568 -2 -605 -19z m293 -201 c18 -11 37 -32 42 -46 6 -15 10 -216 10 -502 0 -453 -1 -479 -19 -508 -42 -69 -146 -63 -176 10 -13 29 -15 115 -15 506 0 514 0 513 58 544 37 21 61 20 100 -4z m369 -5 c41 -27 44 -69 41 -562 -3 -515 -1 -498 -66 -529 -41 -19 -91 -6 -122 33 -19 25 -20 40 -20 518 0 488 0 493 21 519 38 48 93 56 146 21z m366 -15 l27 -30 0 -494 c0 -479 -1 -494 -20 -519 -43 -55 -116 -56 -159 -1 -21 26 -21 31 -21 523 1 536 -1 515 56 546 39 21 83 12 117 -25z" id="svg_3" fill="#6d6d6d" fill-opacity="1"/>
</g></g></svg>