<svg width="540.1999999999999px" height="122.021240234375px" xmlns="http://www.w3.org/2000/svg" viewBox="-20.099999999999966 13.9893798828125 540.1999999999999 122.021240234375" style="background: rgba(0, 0, 0, 0);" preserveAspectRatio="xMidYMid"><defs><filter id="editing-hole" x="-100%" y="-100%" width="300%" height="300%"><feFlood flood-color="#000" result="black"></feFlood><feMorphology operator="dilate" radius="2" in="SourceGraphic" result="erode"></feMorphology><feGaussianBlur in="erode" stdDeviation="4" result="blur"></feGaussianBlur><feOffset in="blur" dx="2" dy="2" result="offset"></feOffset><feComposite operator="atop" in="offset" in2="black" result="merge"></feComposite><feComposite operator="in" in="merge" in2="SourceGraphic" result="inner-shadow"></feComposite></filter></defs><g filter="url(#editing-hole)"><g transform="translate(58.76999568939209, 92.5921859741211)"><path d="M27.01-10.82L27.01-10.82L27.01-10.82Q28.61-9.73 28.61-7.33L28.61-7.33L28.61-7.33Q28.61-4.93 27.39-3.39L27.39-3.39L27.39-3.39Q26.18-1.86 24.19-0.83L24.19-0.83L24.19-0.83Q20.10 1.28 15.68 1.28L15.68 1.28L15.68 1.28Q11.26 1.28 8.67 0.32L8.67 0.32L8.67 0.32Q6.08-0.64 4.35-2.43L4.35-2.43L4.35-2.43Q0.96-5.82 0.96-12.03L0.96-12.03L0.96-12.03Q0.96-21.70 6.21-27.58L6.21-27.58L6.21-27.58Q11.84-33.92 21.63-33.92L21.63-33.92L21.63-33.92Q27.71-33.92 30.72-31.36L30.72-31.36L30.72-31.36Q32.96-29.44 32.96-26.30L32.96-26.30L32.96-26.30Q32.96-15.04 13.50-15.04L13.50-15.04L13.50-15.04Q13.25-13.38 13.25-11.97L13.25-11.97L13.25-11.97Q13.25-9.02 14.56-7.90L14.56-7.90L14.56-7.90Q15.87-6.78 18.30-6.78L18.30-6.78L18.30-6.78Q20.74-6.78 23.33-7.90L23.33-7.90L23.33-7.90Q25.92-9.02 27.01-10.82ZM13.95-17.79L13.95-17.79L13.95-17.79Q18.50-17.79 21.12-20.61L21.12-20.61L21.12-20.61Q23.74-23.30 23.74-27.58L23.74-27.58L23.74-27.58Q23.74-29.06 23.20-29.86L23.20-29.86L23.20-29.86Q22.66-30.66 21.57-30.66L21.57-30.66L21.57-30.66Q20.48-30.66 19.55-30.24L19.55-30.24L19.55-30.24Q18.62-29.82 17.66-28.42L17.66-28.42L17.66-28.42Q15.30-25.22 13.95-17.79ZM37.50-10.37L37.50-10.37L37.50-10.37Q35.46-11.84 35.46-14.66L35.46-14.66L35.46-14.66Q35.46-16.19 36.22-17.44L36.22-17.44L36.22-17.44Q36.99-18.69 38.53-18.88L38.53-18.88L51.14-18.88L51.14-18.88Q53.25-18.88 53.89-20.16L53.89-20.16L53.89-20.16Q54.91-19.58 55.36-18.37L55.36-18.37L55.36-18.37Q55.81-17.15 55.81-15.87L55.81-15.87L55.81-15.87Q55.81-14.59 54.82-13.34L54.82-13.34L54.82-13.34Q53.82-12.10 52.35-11.97L52.35-11.97L40.64-11.97L40.64-11.97Q39.30-11.97 38.66-11.55L38.66-11.55L38.66-11.55Q38.02-11.14 37.50-10.37ZM91.65-26.62L91.65-26.62L91.65-26.62Q91.65-23.94 89.41-22.27L89.41-22.27L89.41-22.27Q87.17-20.61 83.52-20.61L83.52-20.61L83.52-20.61Q81.98-20.61 81.09-21.06L81.09-21.06L81.09-21.06Q81.79-22.72 82.02-24.80L82.02-24.80L82.02-24.80Q82.24-26.88 82.24-27.46L82.24-27.46L82.24-27.46Q82.24-30.14 80.38-30.14L80.38-30.14L80.38-30.14Q79.10-30.14 77.66-28.54L77.66-28.54L77.66-28.54Q76.22-26.94 75.01-24.45L75.01-24.45L75.01-24.45Q72.32-18.69 72.32-12.86L72.32-12.86L72.32-12.86Q72.32-9.66 73.54-8.22L73.54-8.22L73.54-8.22Q74.75-6.78 77.44-6.78L77.44-6.78L77.44-6.78Q81.15-6.78 84.10-9.86L84.10-9.86L84.10-9.86Q84.93-10.82 85.38-11.90L85.38-11.90L85.38-11.90Q87.81-10.62 87.81-7.10L87.81-7.10L87.81-7.10Q87.81-3.52 83.84-1.15L83.84-1.15L83.84-1.15Q79.74 1.28 73.22 1.28L73.22 1.28L73.22 1.28Q60.22 1.28 60.22-12.48L60.22-12.48L60.22-12.48Q60.22-22.53 65.92-28.29L65.92-28.29L65.92-28.29Q71.42-33.92 81.54-33.92L81.54-33.92L81.54-33.92Q91.65-33.92 91.65-26.62ZM107.33 1.28L107.33 1.28L107.33 1.28Q93.25 1.28 93.25-11.97L93.25-11.97L93.25-11.97Q93.25-21.38 98.43-27.46L98.43-27.46L98.43-27.46Q103.94-33.92 113.47-33.92L113.47-33.92L113.47-33.92Q120.38-33.92 123.90-30.72L123.90-30.72L123.90-30.72Q127.42-27.52 127.42-20.80L127.42-20.80L127.42-20.80Q127.42-10.56 121.92-4.61L121.92-4.61L121.92-4.61Q116.54 1.28 107.33 1.28ZM108.99-26.56L108.99-26.56L108.99-26.56Q108.22-24.83 107.62-22.24L107.62-22.24L107.62-22.24Q107.01-19.65 106.24-15.55L106.24-15.55L106.24-15.55Q105.47-11.46 105.47-6.40L105.47-6.40L105.47-6.40Q105.47-4.74 106.02-3.65L106.02-3.65L106.02-3.65Q106.56-2.56 108.03-2.56L108.03-2.56L108.03-2.56Q109.50-2.56 110.43-3.26L110.43-3.26L110.43-3.26Q111.36-3.97 112.06-5.63L112.06-5.63L112.06-5.63Q113.34-8.58 114.37-14.05L114.37-14.05L114.37-14.05Q115.39-19.52 115.49-21.89L115.49-21.89L115.49-21.89Q115.58-24.26 115.58-26.02L115.58-26.02L115.58-26.02Q115.58-27.78 115.07-28.93L115.07-28.93L115.07-28.93Q114.56-30.08 113.12-30.08L113.12-30.08L113.12-30.08Q111.68-30.08 110.72-29.18L110.72-29.18L110.72-29.18Q109.76-28.29 108.99-26.56ZM177.28 1.28L177.28 1.28L177.28 1.28Q169.54 1.28 169.54-4.74L169.54-4.74L169.54-4.74Q169.54-7.36 170.66-12.45L170.66-12.45L170.66-12.45Q171.78-17.54 172.16-19.58L172.16-19.58L172.16-19.58Q173.06-24.26 173.06-25.73L173.06-25.73L173.06-25.73Q173.06-28.99 170.62-28.99L170.62-28.99L170.62-28.99Q169.02-28.99 167.49-26.78L167.49-26.78L167.49-26.78Q165.95-24.58 165.25-20.16L165.25-20.16L161.28 0L148.80 1.28L152.26-16.13L152.26-16.13Q152.83-19.01 153.34-22.27L153.34-22.27L153.34-22.27Q153.86-25.54 153.86-26.05L153.86-26.05L153.86-26.05Q153.86-28.99 151.68-28.99L151.68-28.99L151.68-28.99Q150.21-28.99 148.61-26.82L148.61-26.82L148.61-26.82Q147.01-24.64 146.11-20.16L146.11-20.16L142.21 0L129.60 1.28L136.32-32.64L146.75-33.92L145.66-27.46L145.66-27.46Q147.33-30.91 150.40-32.42L150.40-32.42L150.40-32.42Q153.47-33.92 158.27-33.92L158.27-33.92L158.27-33.92Q161.02-33.92 162.82-32.58L162.82-32.58L162.82-32.58Q164.61-31.23 165.18-29.06L165.18-29.06L165.18-29.06Q166.27-31.30 169.06-32.61L169.06-32.61L169.06-32.61Q171.84-33.92 175.26-33.92L175.26-33.92L175.26-33.92Q178.69-33.92 180.38-33.18L180.38-33.18L180.38-33.18Q182.08-32.45 183.10-31.23L183.10-31.23L183.10-31.23Q184.83-28.99 184.83-24.90L184.83-24.90L184.83-24.90Q184.83-20.86 183.10-12.48L183.10-12.48L183.10-12.48Q182.21-8.38 182.21-6.88L182.21-6.88L182.21-6.88Q182.21-5.38 183.07-4.48L183.07-4.48L183.07-4.48Q183.94-3.58 185.22-3.46L185.22-3.46L185.22-3.46Q184.58-1.28 182.37 0L182.37 0L182.37 0Q180.16 1.28 177.28 1.28ZM236.22 1.28L236.22 1.28L236.22 1.28Q228.48 1.28 228.48-4.74L228.48-4.74L228.48-4.74Q228.48-7.36 229.60-12.45L229.60-12.45L229.60-12.45Q230.72-17.54 231.10-19.58L231.10-19.58L231.10-19.58Q232.00-24.26 232.00-25.73L232.00-25.73L232.00-25.73Q232.00-28.99 229.57-28.99L229.57-28.99L229.57-28.99Q227.97-28.99 226.43-26.78L226.43-26.78L226.43-26.78Q224.90-24.58 224.19-20.16L224.19-20.16L220.22 0L207.74 1.28L211.20-16.13L211.20-16.13Q211.78-19.01 212.29-22.27L212.29-22.27L212.29-22.27Q212.80-25.54 212.80-26.05L212.80-26.05L212.80-26.05Q212.80-28.99 210.62-28.99L210.62-28.99L210.62-28.99Q209.15-28.99 207.55-26.82L207.55-26.82L207.55-26.82Q205.95-24.64 205.06-20.16L205.06-20.16L201.15 0L188.54 1.28L195.26-32.64L205.70-33.92L204.61-27.46L204.61-27.46Q206.27-30.91 209.34-32.42L209.34-32.42L209.34-32.42Q212.42-33.92 217.22-33.92L217.22-33.92L217.22-33.92Q219.97-33.92 221.76-32.58L221.76-32.58L221.76-32.58Q223.55-31.23 224.13-29.06L224.13-29.06L224.13-29.06Q225.22-31.30 228.00-32.61L228.00-32.61L228.00-32.61Q230.78-33.92 234.21-33.92L234.21-33.92L234.21-33.92Q237.63-33.92 239.33-33.18L239.33-33.18L239.33-33.18Q241.02-32.45 242.05-31.23L242.05-31.23L242.05-31.23Q243.78-28.99 243.78-24.90L243.78-24.90L243.78-24.90Q243.78-20.86 242.05-12.48L242.05-12.48L242.05-12.48Q241.15-8.38 241.15-6.88L241.15-6.88L241.15-6.88Q241.15-5.38 242.02-4.48L242.02-4.48L242.02-4.48Q242.88-3.58 244.16-3.46L244.16-3.46L244.16-3.46Q243.52-1.28 241.31 0L241.31 0L241.31 0Q239.10 1.28 236.22 1.28ZM275.01-10.82L275.01-10.82L275.01-10.82Q276.61-9.73 276.61-7.33L276.61-7.33L276.61-7.33Q276.61-4.93 275.39-3.39L275.39-3.39L275.39-3.39Q274.18-1.86 272.19-0.83L272.19-0.83L272.19-0.83Q268.10 1.28 263.68 1.28L263.68 1.28L263.68 1.28Q259.26 1.28 256.67 0.32L256.67 0.32L256.67 0.32Q254.08-0.64 252.35-2.43L252.35-2.43L252.35-2.43Q248.96-5.82 248.96-12.03L248.96-12.03L248.96-12.03Q248.96-21.70 254.21-27.58L254.21-27.58L254.21-27.58Q259.84-33.92 269.63-33.92L269.63-33.92L269.63-33.92Q275.71-33.92 278.72-31.36L278.72-31.36L278.72-31.36Q280.96-29.44 280.96-26.30L280.96-26.30L280.96-26.30Q280.96-15.04 261.50-15.04L261.50-15.04L261.50-15.04Q261.25-13.38 261.25-11.97L261.25-11.97L261.25-11.97Q261.25-9.02 262.56-7.90L262.56-7.90L262.56-7.90Q263.87-6.78 266.30-6.78L266.30-6.78L266.30-6.78Q268.74-6.78 271.33-7.90L271.33-7.90L271.33-7.90Q273.92-9.02 275.01-10.82ZM261.95-17.79L261.95-17.79L261.95-17.79Q266.50-17.79 269.12-20.61L269.12-20.61L269.12-20.61Q271.74-23.30 271.74-27.58L271.74-27.58L271.74-27.58Q271.74-29.06 271.20-29.86L271.20-29.86L271.20-29.86Q270.66-30.66 269.57-30.66L269.57-30.66L269.57-30.66Q268.48-30.66 267.55-30.24L267.55-30.24L267.55-30.24Q266.62-29.82 265.66-28.42L265.66-28.42L265.66-28.42Q263.30-25.22 261.95-17.79ZM303.17-17.98L303.17-17.98L303.17-17.98Q305.47-22.08 305.47-26.24L305.47-26.24L305.47-26.24Q305.47-28.99 303.49-28.99L303.49-28.99L303.49-28.99Q301.95-28.99 300.35-26.37L300.35-26.37L300.35-26.37Q298.69-23.74 298.18-20.35L298.18-20.35L294.85 0L281.60 1.28L288.13-32.64L298.69-33.92L297.54-27.46L297.54-27.46Q300.67-33.92 307.71-33.92L307.71-33.92L307.71-33.92Q311.42-33.92 313.44-32L313.44-32L313.44-32Q315.46-30.08 315.46-26.14L315.46-26.14L315.46-26.14Q315.46-22.21 312.86-19.71L312.86-19.71L312.86-19.71Q310.27-17.22 305.86-17.22L305.86-17.22L305.86-17.22Q303.94-17.22 303.17-17.98ZM347.90-26.62L347.90-26.62L347.90-26.62Q347.90-23.94 345.66-22.27L345.66-22.27L345.66-22.27Q343.42-20.61 339.78-20.61L339.78-20.61L339.78-20.61Q338.24-20.61 337.34-21.06L337.34-21.06L337.34-21.06Q338.05-22.72 338.27-24.80L338.27-24.80L338.27-24.80Q338.50-26.88 338.50-27.46L338.50-27.46L338.50-27.46Q338.50-30.14 336.64-30.14L336.64-30.14L336.64-30.14Q335.36-30.14 333.92-28.54L333.92-28.54L333.92-28.54Q332.48-26.94 331.26-24.45L331.26-24.45L331.26-24.45Q328.58-18.69 328.58-12.86L328.58-12.86L328.58-12.86Q328.58-9.66 329.79-8.22L329.79-8.22L329.79-8.22Q331.01-6.78 333.70-6.78L333.70-6.78L333.70-6.78Q337.41-6.78 340.35-9.86L340.35-9.86L340.35-9.86Q341.18-10.82 341.63-11.90L341.63-11.90L341.63-11.90Q344.06-10.62 344.06-7.10L344.06-7.10L344.06-7.10Q344.06-3.52 340.10-1.15L340.10-1.15L340.10-1.15Q336.00 1.28 329.47 1.28L329.47 1.28L329.47 1.28Q316.48 1.28 316.48-12.48L316.48-12.48L316.48-12.48Q316.48-22.53 322.18-28.29L322.18-28.29L322.18-28.29Q327.68-33.92 337.79-33.92L337.79-33.92L337.79-33.92Q347.90-33.92 347.90-26.62ZM375.55-10.82L375.55-10.82L375.55-10.82Q377.15-9.73 377.15-7.33L377.15-7.33L377.15-7.33Q377.15-4.93 375.94-3.39L375.94-3.39L375.94-3.39Q374.72-1.86 372.74-0.83L372.74-0.83L372.74-0.83Q368.64 1.28 364.22 1.28L364.22 1.28L364.22 1.28Q359.81 1.28 357.22 0.32L357.22 0.32L357.22 0.32Q354.62-0.64 352.90-2.43L352.90-2.43L352.90-2.43Q349.50-5.82 349.50-12.03L349.50-12.03L349.50-12.03Q349.50-21.70 354.75-27.58L354.75-27.58L354.75-27.58Q360.38-33.92 370.18-33.92L370.18-33.92L370.18-33.92Q376.26-33.92 379.26-31.36L379.26-31.36L379.26-31.36Q381.50-29.44 381.50-26.30L381.50-26.30L381.50-26.30Q381.50-15.04 362.05-15.04L362.05-15.04L362.05-15.04Q361.79-13.38 361.79-11.97L361.79-11.97L361.79-11.97Q361.79-9.02 363.10-7.90L363.10-7.90L363.10-7.90Q364.42-6.78 366.85-6.78L366.85-6.78L366.85-6.78Q369.28-6.78 371.87-7.90L371.87-7.90L371.87-7.90Q374.46-9.02 375.55-10.82ZM362.50-17.79L362.50-17.79L362.50-17.79Q367.04-17.79 369.66-20.61L369.66-20.61L369.66-20.61Q372.29-23.30 372.29-27.58L372.29-27.58L372.29-27.58Q372.29-29.06 371.74-29.86L371.74-29.86L371.74-29.86Q371.20-30.66 370.11-30.66L370.11-30.66L370.11-30.66Q369.02-30.66 368.10-30.24L368.10-30.24L368.10-30.24Q367.17-29.82 366.21-28.42L366.21-28.42L366.21-28.42Q363.84-25.22 362.50-17.79Z" fill="#ccc"></path></g></g><style>text {
  font-size: 64px;
  font-family: Arial Black;
  dominant-baseline: central;
  text-anchor: middle;
}</style></svg>