<svg xmlns="http://www.w3.org/2000/svg" version="1.0" width="225.000000" height="225.000000" preserveAspectRatio="xMidYMid meet"><rect id="backgroundrect" width="100%" height="100%" x="0" y="0" fill="none" stroke="none"/>


<g class="currentLayer" style=""><title>Layer 1</title><g transform="translate(0,225) scale(0.10000000149011612,-0.10000000149011612) " fill="#6d6d6d" stroke="none" id="svg_1" class="selected" fill-opacity="1">
<path d="M329 2236 c-60 -21 -96 -54 -124 -109 l-25 -53 2 -960 c3 -1056 -1 -982 64 -1048 65 -64 30 -61 680 -61 l591 0 48 30 c36 22 57 45 77 84 27 51 28 59 28 203 l0 150 -29 29 c-38 37 -82 39 -116 4 -24 -23 -25 -29 -25 -158 0 -99 -4 -138 -14 -153 -14 -18 -31 -19 -561 -19 -530 0 -547 1 -561 19 -12 17 -14 160 -14 933 0 900 0 913 20 933 20 20 33 20 555 20 522 0 535 0 555 -20 18 -18 20 -33 20 -155 0 -131 1 -137 25 -160 34 -35 78 -33 116 4 l29 29 0 150 c0 144 -1 152 -28 203 -20 39 -41 62 -77 84 l-48 30 -576 2 c-454 2 -584 0 -612 -11z" id="svg_2" fill="#6d6d6d" fill-opacity="1"/>
<path d="M1461 1644 c-24 -20 -31 -34 -31 -63 0 -34 11 -48 165 -201 91 -90 165 -165 165 -167 0 -2 -196 -3 -435 -3 l-436 0 -24 -25 c-17 -16 -25 -35 -25 -60 0 -25 8 -44 25 -60 l24 -25 436 0 c239 0 435 -1 435 -3 0 -1 -74 -77 -165 -168 -153 -152 -165 -167 -165 -201 0 -28 7 -42 31 -62 17 -14 42 -26 55 -26 29 0 159 117 397 357 129 131 157 164 157 188 0 24 -28 57 -157 188 -238 240 -368 357 -397 357 -13 0 -38 -12 -55 -26z" id="svg_3" fill="#6d6d6d" fill-opacity="1"/>
</g></g></svg>