<?xml version="1.0" standalone="no"?>
<!DOCTYPE svg PUBLIC "-//W3C//DTD SVG 20010904//EN"
 "http://www.w3.org/TR/2001/REC-SVG-20010904/DTD/svg10.dtd">
<svg version="1.0" xmlns="http://www.w3.org/2000/svg"
 width="928.000000pt" height="289.000000pt" viewBox="0 0 928.000000 289.000000"
 preserveAspectRatio="xMidYMid meet">
<metadata>
Created by potrace 1.16, written by Peter Selinger 2001-2019
</metadata>
<g transform="translate(0.000000,289.000000) scale(0.100000,-0.100000)"
fill="#000000" stroke="none">
<path d="M1969 1499 c-129 -11 -216 -48 -296 -129 -29 -29 -66 -80 -83 -112
-29 -60 -47 -124 -37 -134 12 -12 48 20 100 88 124 165 215 210 422 212 83 0
108 -4 149 -22 27 -12 51 -20 54 -17 12 12 -25 59 -66 82 -51 30 -132 41 -243
32z"/>
<path d="M2735 1498 c-83 -7 -142 -27 -206 -69 -47 -30 -109 -94 -109 -112 0
-17 71 1 149 39 108 52 161 64 282 64 118 0 167 -13 226 -57 l36 -28 -18 35
c-50 99 -181 145 -360 128z"/>
<path d="M3465 1491 c-66 -8 -122 -16 -124 -18 -9 -7 -57 -274 -50 -279 9 -5
20 10 82 106 48 74 90 106 152 116 52 7 68 22 63 61 l-3 28 -120 -14z"/>
<path d="M4860 1491 l-125 -16 -52 -260 c-50 -250 -65 -345 -57 -345 12 0 48
95 84 221 54 190 76 243 116 278 33 29 88 51 130 51 17 0 23 8 28 41 4 23 5
42 4 43 -2 1 -59 -5 -128 -13z"/>
<path d="M5186 1499 c-38 -4 -88 -18 -114 -31 -84 -43 -71 -48 142 -46 108 1
196 5 196 9 0 13 -61 59 -86 64 -53 11 -72 12 -138 4z"/>
<path d="M7060 1490 l-125 -15 -12 -70 c-7 -38 -10 -72 -5 -76 4 -5 32 8 62
27 56 35 135 64 177 64 24 0 38 30 31 67 -3 17 -8 18 -128 3z"/>
<path d="M7355 1499 c-56 -7 -101 -27 -127 -56 -17 -18 -14 -19 120 -19 100 0
149 -4 179 -16 23 -8 44 -13 47 -10 3 2 -1 17 -10 33 -27 53 -112 81 -209 68z"/>
<path d="M8035 1498 c-108 -9 -201 -46 -271 -110 -30 -28 -52 -53 -49 -58 7
-12 83 6 160 38 167 69 340 78 447 22 l37 -19 -11 27 c-28 65 -70 90 -166 100
-37 4 -103 4 -147 0z"/>
<path d="M478 1489 c-116 -27 -236 -125 -289 -236 -58 -122 -74 -295 -38 -406
15 -45 79 -121 120 -143 34 -17 38 -5 8 22 -44 40 -63 94 -67 194 -7 161 28
284 105 370 84 94 184 132 341 131 120 -1 168 -14 210 -58 l33 -35 -7 28 c-24
103 -105 145 -278 143 -56 -1 -118 -5 -138 -10z"/>
<path d="M3715 1487 c-46 -15 -95 -45 -95 -58 0 -4 89 -7 199 -6 215 1 218 3
153 52 -22 16 -45 20 -122 22 -57 2 -111 -3 -135 -10z"/>
<path d="M4130 1479 c-48 -22 -80 -46 -80 -62 0 -6 43 -6 118 -1 191 14 254 5
291 -40 22 -26 31 -18 19 17 -26 79 -82 107 -212 107 -70 0 -101 -5 -136 -21z"/>
<path d="M5535 1482 c-94 -40 -113 -72 -42 -72 23 0 83 4 133 9 104 10 176 0
217 -30 38 -27 46 -16 22 29 -33 61 -83 82 -195 81 -66 0 -107 -5 -135 -17z"/>
<path d="M6325 1480 c-80 -26 -159 -82 -210 -149 -42 -55 -93 -166 -82 -177 3
-4 50 36 104 88 111 107 162 141 248 163 69 17 79 18 200 13 68 -2 101 -9 134
-25 25 -12 46 -21 48 -19 11 11 -50 75 -92 96 -44 22 -65 25 -170 27 -96 2
-132 -1 -180 -17z"/>
<path d="M8750 1493 c-58 -12 -169 -72 -213 -117 -26 -26 -47 -51 -47 -56 0
-17 43 -10 105 16 33 14 86 37 117 50 32 14 79 26 105 29 27 2 50 5 53 6 3 1
37 0 75 0 100 -3 144 -17 182 -58 l32 -36 -10 39 c-13 47 -41 79 -94 107 -33
18 -60 22 -160 23 -66 1 -131 0 -145 -3z"/>
<path d="M1378 1168 c-4 -10 -55 -14 -196 -18 -175 -5 -192 -7 -205 -25 -8
-10 -13 -25 -10 -32 3 -7 1 -13 -4 -13 -18 0 -13 -75 7 -107 23 -38 31 -40 54
-14 17 18 17 22 2 43 -20 29 -20 54 0 62 9 3 64 6 123 6 59 0 149 3 198 6 l91
7 -5 31 c-7 47 -45 84 -55 54z"/>
<path d="M7612 949 c6 -119 44 -193 121 -243 39 -24 47 -12 15 22 -36 38 -46
61 -63 142 -15 71 -45 143 -66 156 -9 5 -10 -16 -7 -77z"/>
<path d="M8171 939 c-19 -23 -48 -47 -65 -54 -17 -6 -40 -16 -51 -20 -39 -15
41 -23 131 -12 l86 10 -6 35 c-6 40 -31 82 -49 82 -6 0 -27 -19 -46 -41z"/>
</g>
</svg>
