<svg xmlns="http://www.w3.org/2000/svg" width="540.1999999999999" height="122.021240234375" style="background: rgba(0, 0, 0, 0);" preserveAspectRatio="xMidYMid"><rect id="backgroundrect" width="100%" height="100%" x="0" y="0" fill="none" stroke="none"/><defs><filter id="editing-hole" x="-100%" y="-100%" width="300%" height="300%"><feFlood flood-color="#000" result="black"/><feMorphology operator="dilate" radius="2" in="SourceGraphic" result="erode"/><feGaussianBlur in="erode" stdDeviation="4" result="blur"/><feOffset in="blur" dx="2" dy="2" result="offset"/><feComposite operator="atop" in="offset" in2="black" result="merge"/><feComposite operator="in" in="merge" in2="SourceGraphic" result="inner-shadow"/></filter></defs><style>text {
  font-size: 64px;
  font-family: Arial Black;
  dominant-baseline: central;
  text-anchor: middle;
}</style><g class="currentLayer" style=""><title>Layer 1</title><g filter="url(#editing-hole)" id="svg_1" class="selected" fill="#919191" fill-opacity="1"><g id="svg_2" fill="#919191" fill-opacity="1"><path d="M85.77999664306641,81.7721859741211 L85.77999664306641,81.7721859741211 L85.77999664306641,81.7721859741211 Q87.3799966430664,82.86218597412109 87.3799966430664,85.2621859741211 L87.3799966430664,85.2621859741211 L87.3799966430664,85.2621859741211 Q87.3799966430664,87.66218597412109 86.1599966430664,89.2021859741211 L86.1599966430664,89.2021859741211 L86.1599966430664,89.2021859741211 Q84.94999664306641,90.7321859741211 82.9599966430664,91.7621859741211 L82.9599966430664,91.7621859741211 L82.9599966430664,91.7621859741211 Q78.8699966430664,93.8721859741211 74.44999664306641,93.8721859741211 L74.44999664306641,93.8721859741211 L74.44999664306641,93.8721859741211 Q70.02999664306641,93.8721859741211 67.43999664306641,92.91218597412109 L67.43999664306641,92.91218597412109 L67.43999664306641,92.91218597412109 Q64.8499966430664,91.9521859741211 63.11999664306641,90.16218597412109 L63.11999664306641,90.16218597412109 L63.11999664306641,90.16218597412109 Q59.72999664306641,86.7721859741211 59.72999664306641,80.56218597412109 L59.72999664306641,80.56218597412109 L59.72999664306641,80.56218597412109 Q59.72999664306641,70.89218597412109 64.9799966430664,65.0121859741211 L64.9799966430664,65.0121859741211 L64.9799966430664,65.0121859741211 Q70.60999664306641,58.67218597412109 80.3999966430664,58.67218597412109 L80.3999966430664,58.67218597412109 L80.3999966430664,58.67218597412109 Q86.47999664306641,58.67218597412109 89.4899966430664,61.232185974121094 L89.4899966430664,61.232185974121094 L89.4899966430664,61.232185974121094 Q91.72999664306641,63.152185974121096 91.72999664306641,66.2921859741211 L91.72999664306641,66.2921859741211 L91.72999664306641,66.2921859741211 Q91.72999664306641,77.5521859741211 72.2699966430664,77.5521859741211 L72.2699966430664,77.5521859741211 L72.2699966430664,77.5521859741211 Q72.0199966430664,79.2121859741211 72.0199966430664,80.6221859741211 L72.0199966430664,80.6221859741211 L72.0199966430664,80.6221859741211 Q72.0199966430664,83.5721859741211 73.32999664306641,84.69218597412109 L73.32999664306641,84.69218597412109 L73.32999664306641,84.69218597412109 Q74.63999664306641,85.81218597412109 77.0699966430664,85.81218597412109 L77.0699966430664,85.81218597412109 L77.0699966430664,85.81218597412109 Q79.5099966430664,85.81218597412109 82.0999966430664,84.69218597412109 L82.0999966430664,84.69218597412109 L82.0999966430664,84.69218597412109 Q84.68999664306641,83.5721859741211 85.77999664306641,81.7721859741211 zM72.71999664306641,74.8021859741211 L72.71999664306641,74.8021859741211 L72.71999664306641,74.8021859741211 Q77.2699966430664,74.8021859741211 79.88999664306641,71.9821859741211 L79.88999664306641,71.9821859741211 L79.88999664306641,71.9821859741211 Q82.5099966430664,69.2921859741211 82.5099966430664,65.0121859741211 L82.5099966430664,65.0121859741211 L82.5099966430664,65.0121859741211 Q82.5099966430664,63.53218597412109 81.96999664306641,62.732185974121094 L81.96999664306641,62.732185974121094 L81.96999664306641,62.732185974121094 Q81.4299966430664,61.9321859741211 80.3399966430664,61.9321859741211 L80.3399966430664,61.9321859741211 L80.3399966430664,61.9321859741211 Q79.24999664306641,61.9321859741211 78.3199966430664,62.3521859741211 L78.3199966430664,62.3521859741211 L78.3199966430664,62.3521859741211 Q77.38999664306641,62.77218597412109 76.4299966430664,64.17218597412109 L76.4299966430664,64.17218597412109 L76.4299966430664,64.17218597412109 Q74.0699966430664,67.3721859741211 72.71999664306641,74.8021859741211 zM96.2699966430664,82.22218597412109 L96.2699966430664,82.22218597412109 L96.2699966430664,82.22218597412109 Q94.22999664306641,80.75218597412109 94.22999664306641,77.9321859741211 L94.22999664306641,77.9321859741211 L94.22999664306641,77.9321859741211 Q94.22999664306641,76.4021859741211 94.9899966430664,75.1521859741211 L94.9899966430664,75.1521859741211 L94.9899966430664,75.1521859741211 Q95.75999664306642,73.9021859741211 97.29999664306641,73.7121859741211 L97.29999664306641,73.7121859741211 L109.9099966430664,73.7121859741211 L109.9099966430664,73.7121859741211 Q112.0199966430664,73.7121859741211 112.6599966430664,72.4321859741211 L112.6599966430664,72.4321859741211 L112.6599966430664,72.4321859741211 Q113.6799966430664,73.0121859741211 114.1299966430664,74.22218597412109 L114.1299966430664,74.22218597412109 L114.1299966430664,74.22218597412109 Q114.57999664306641,75.44218597412109 114.57999664306641,76.72218597412109 L114.57999664306641,76.72218597412109 L114.57999664306641,76.72218597412109 Q114.57999664306641,78.00218597412109 113.5899966430664,79.25218597412109 L113.5899966430664,79.25218597412109 L113.5899966430664,79.25218597412109 Q112.5899966430664,80.4921859741211 111.1199966430664,80.6221859741211 L111.1199966430664,80.6221859741211 L99.4099966430664,80.6221859741211 L99.4099966430664,80.6221859741211 Q98.0699966430664,80.6221859741211 97.4299966430664,81.0421859741211 L97.4299966430664,81.0421859741211 L97.4299966430664,81.0421859741211 Q96.78999664306642,81.4521859741211 96.2699966430664,82.22218597412109 zM150.4199966430664,65.97218597412109 L150.4199966430664,65.97218597412109 L150.4199966430664,65.97218597412109 Q150.4199966430664,68.6521859741211 148.1799966430664,70.3221859741211 L148.1799966430664,70.3221859741211 L148.1799966430664,70.3221859741211 Q145.93999664306642,71.9821859741211 142.2899966430664,71.9821859741211 L142.2899966430664,71.9821859741211 L142.2899966430664,71.9821859741211 Q140.74999664306642,71.9821859741211 139.8599966430664,71.53218597412109 L139.8599966430664,71.53218597412109 L139.8599966430664,71.53218597412109 Q140.55999664306643,69.8721859741211 140.7899966430664,67.7921859741211 L140.7899966430664,67.7921859741211 L140.7899966430664,67.7921859741211 Q141.00999664306642,65.7121859741211 141.00999664306642,65.13218597412109 L141.00999664306642,65.13218597412109 L141.00999664306642,65.13218597412109 Q141.00999664306642,62.45218597412109 139.1499966430664,62.45218597412109 L139.1499966430664,62.45218597412109 L139.1499966430664,62.45218597412109 Q137.8699966430664,62.45218597412109 136.4299966430664,64.0521859741211 L136.4299966430664,64.0521859741211 L136.4299966430664,64.0521859741211 Q134.9899966430664,65.6521859741211 133.7799966430664,68.14218597412109 L133.7799966430664,68.14218597412109 L133.7799966430664,68.14218597412109 Q131.0899966430664,73.9021859741211 131.0899966430664,79.7321859741211 L131.0899966430664,79.7321859741211 L131.0899966430664,79.7321859741211 Q131.0899966430664,82.9321859741211 132.30999664306643,84.3721859741211 L132.30999664306643,84.3721859741211 L132.30999664306643,84.3721859741211 Q133.5199966430664,85.81218597412109 136.2099966430664,85.81218597412109 L136.2099966430664,85.81218597412109 L136.2099966430664,85.81218597412109 Q139.9199966430664,85.81218597412109 142.8699966430664,82.7321859741211 L142.8699966430664,82.7321859741211 L142.8699966430664,82.7321859741211 Q143.6999966430664,81.7721859741211 144.1499966430664,80.69218597412109 L144.1499966430664,80.69218597412109 L144.1499966430664,80.69218597412109 Q146.5799966430664,81.97218597412109 146.5799966430664,85.4921859741211 L146.5799966430664,85.4921859741211 L146.5799966430664,85.4921859741211 Q146.5799966430664,89.0721859741211 142.6099966430664,91.44218597412109 L142.6099966430664,91.44218597412109 L142.6099966430664,91.44218597412109 Q138.50999664306642,93.8721859741211 131.9899966430664,93.8721859741211 L131.9899966430664,93.8721859741211 L131.9899966430664,93.8721859741211 Q118.9899966430664,93.8721859741211 118.9899966430664,80.11218597412109 L118.9899966430664,80.11218597412109 L118.9899966430664,80.11218597412109 Q118.9899966430664,70.06218597412109 124.68999664306641,64.3021859741211 L124.68999664306641,64.3021859741211 L124.68999664306641,64.3021859741211 Q130.18999664306642,58.67218597412109 140.30999664306643,58.67218597412109 L140.30999664306643,58.67218597412109 L140.30999664306643,58.67218597412109 Q150.4199966430664,58.67218597412109 150.4199966430664,65.97218597412109 zM166.0999966430664,93.8721859741211 L166.0999966430664,93.8721859741211 L166.0999966430664,93.8721859741211 Q152.0199966430664,93.8721859741211 152.0199966430664,80.6221859741211 L152.0199966430664,80.6221859741211 L152.0199966430664,80.6221859741211 Q152.0199966430664,71.2121859741211 157.1999966430664,65.13218597412109 L157.1999966430664,65.13218597412109 L157.1999966430664,65.13218597412109 Q162.7099966430664,58.67218597412109 172.2399966430664,58.67218597412109 L172.2399966430664,58.67218597412109 L172.2399966430664,58.67218597412109 Q179.1499966430664,58.67218597412109 182.6699966430664,61.872185974121095 L182.6699966430664,61.872185974121095 L182.6699966430664,61.872185974121095 Q186.18999664306642,65.0721859741211 186.18999664306642,71.7921859741211 L186.18999664306642,71.7921859741211 L186.18999664306642,71.7921859741211 Q186.18999664306642,82.03218597412109 180.68999664306642,87.9821859741211 L180.68999664306642,87.9821859741211 L180.68999664306642,87.9821859741211 Q175.30999664306643,93.8721859741211 166.0999966430664,93.8721859741211 zM167.75999664306642,66.03218597412109 L167.75999664306642,66.03218597412109 L167.75999664306642,66.03218597412109 Q166.9899966430664,67.7621859741211 166.3899966430664,70.3521859741211 L166.3899966430664,70.3521859741211 L166.3899966430664,70.3521859741211 Q165.7799966430664,72.94218597412109 165.00999664306642,77.0421859741211 L165.00999664306642,77.0421859741211 L165.00999664306642,77.0421859741211 Q164.2399966430664,81.13218597412109 164.2399966430664,86.19218597412109 L164.2399966430664,86.19218597412109 L164.2399966430664,86.19218597412109 Q164.2399966430664,87.8521859741211 164.7899966430664,88.94218597412109 L164.7899966430664,88.94218597412109 L164.7899966430664,88.94218597412109 Q165.3299966430664,90.03218597412109 166.7999966430664,90.03218597412109 L166.7999966430664,90.03218597412109 L166.7999966430664,90.03218597412109 Q168.2699966430664,90.03218597412109 169.1999966430664,89.33218597412109 L169.1999966430664,89.33218597412109 L169.1999966430664,89.33218597412109 Q170.12999664306642,88.6221859741211 170.8299966430664,86.9621859741211 L170.8299966430664,86.9621859741211 L170.8299966430664,86.9621859741211 Q172.1099966430664,84.0121859741211 173.1399966430664,78.5421859741211 L173.1399966430664,78.5421859741211 L173.1399966430664,78.5421859741211 Q174.1599966430664,73.0721859741211 174.25999664306642,70.7021859741211 L174.25999664306642,70.7021859741211 L174.25999664306642,70.7021859741211 Q174.3499966430664,68.33218597412109 174.3499966430664,66.5721859741211 L174.3499966430664,66.5721859741211 L174.3499966430664,66.5721859741211 Q174.3499966430664,64.81218597412109 173.8399966430664,63.662185974121094 L173.8399966430664,63.662185974121094 L173.8399966430664,63.662185974121094 Q173.3299966430664,62.512185974121095 171.8899966430664,62.512185974121095 L171.8899966430664,62.512185974121095 L171.8899966430664,62.512185974121095 Q170.4499966430664,62.512185974121095 169.4899966430664,63.412185974121094 L169.4899966430664,63.412185974121094 L169.4899966430664,63.412185974121094 Q168.5299966430664,64.3021859741211 167.75999664306642,66.03218597412109 zM236.0499966430664,93.8721859741211 L236.0499966430664,93.8721859741211 L236.0499966430664,93.8721859741211 Q228.3099966430664,93.8721859741211 228.3099966430664,87.8521859741211 L228.3099966430664,87.8521859741211 L228.3099966430664,87.8521859741211 Q228.3099966430664,85.2321859741211 229.4299966430664,80.14218597412109 L229.4299966430664,80.14218597412109 L229.4299966430664,80.14218597412109 Q230.5499966430664,75.0521859741211 230.9299966430664,73.0121859741211 L230.9299966430664,73.0121859741211 L230.9299966430664,73.0121859741211 Q231.8299966430664,68.33218597412109 231.8299966430664,66.86218597412109 L231.8299966430664,66.86218597412109 L231.8299966430664,66.86218597412109 Q231.8299966430664,63.6021859741211 229.3899966430664,63.6021859741211 L229.3899966430664,63.6021859741211 L229.3899966430664,63.6021859741211 Q227.78999664306642,63.6021859741211 226.25999664306642,65.81218597412109 L226.25999664306642,65.81218597412109 L226.25999664306642,65.81218597412109 Q224.7199966430664,68.0121859741211 224.0199966430664,72.4321859741211 L224.0199966430664,72.4321859741211 L220.0499966430664,92.5921859741211 L207.56999664306642,93.8721859741211 L211.0299966430664,76.4621859741211 L211.0299966430664,76.4621859741211 Q211.59999664306642,73.58218597412109 212.1099966430664,70.3221859741211 L212.1099966430664,70.3221859741211 L212.1099966430664,70.3221859741211 Q212.62999664306642,67.0521859741211 212.62999664306642,66.5421859741211 L212.62999664306642,66.5421859741211 L212.62999664306642,66.5421859741211 Q212.62999664306642,63.6021859741211 210.4499966430664,63.6021859741211 L210.4499966430664,63.6021859741211 L210.4499966430664,63.6021859741211 Q208.9799966430664,63.6021859741211 207.37999664306642,65.7721859741211 L207.37999664306642,65.7721859741211 L207.37999664306642,65.7721859741211 Q205.7799966430664,67.9521859741211 204.87999664306642,72.4321859741211 L204.87999664306642,72.4321859741211 L200.9799966430664,92.5921859741211 L188.3699966430664,93.8721859741211 L195.0899966430664,59.95218597412109 L205.5199966430664,58.67218597412109 L204.4299966430664,65.13218597412109 L204.4299966430664,65.13218597412109 Q206.09999664306642,61.6821859741211 209.1699966430664,60.17218597412109 L209.1699966430664,60.17218597412109 L209.1699966430664,60.17218597412109 Q212.2399966430664,58.67218597412109 217.03999664306642,58.67218597412109 L217.03999664306642,58.67218597412109 L217.03999664306642,58.67218597412109 Q219.78999664306642,58.67218597412109 221.5899966430664,60.012185974121095 L221.5899966430664,60.012185974121095 L221.5899966430664,60.012185974121095 Q223.37999664306642,61.36218597412109 223.9499966430664,63.53218597412109 L223.9499966430664,63.53218597412109 L223.9499966430664,63.53218597412109 Q225.03999664306642,61.2921859741211 227.8299966430664,59.982185974121094 L227.8299966430664,59.982185974121094 L227.8299966430664,59.982185974121094 Q230.6099966430664,58.67218597412109 234.0299966430664,58.67218597412109 L234.0299966430664,58.67218597412109 L234.0299966430664,58.67218597412109 Q237.4599966430664,58.67218597412109 239.1499966430664,59.412185974121094 L239.1499966430664,59.412185974121094 L239.1499966430664,59.412185974121094 Q240.84999664306642,60.14218597412109 241.8699966430664,61.36218597412109 L241.8699966430664,61.36218597412109 L241.8699966430664,61.36218597412109 Q243.59999664306642,63.6021859741211 243.59999664306642,67.69218597412109 L243.59999664306642,67.69218597412109 L243.59999664306642,67.69218597412109 Q243.59999664306642,71.7321859741211 241.8699966430664,80.11218597412109 L241.8699966430664,80.11218597412109 L241.8699966430664,80.11218597412109 Q240.9799966430664,84.2121859741211 240.9799966430664,85.7121859741211 L240.9799966430664,85.7121859741211 L240.9799966430664,85.7121859741211 Q240.9799966430664,87.2121859741211 241.8399966430664,88.11218597412109 L241.8399966430664,88.11218597412109 L241.8399966430664,88.11218597412109 Q242.7099966430664,89.0121859741211 243.9899966430664,89.1321859741211 L243.9899966430664,89.1321859741211 L243.9899966430664,89.1321859741211 Q243.34999664306642,91.31218597412109 241.1399966430664,92.5921859741211 L241.1399966430664,92.5921859741211 L241.1399966430664,92.5921859741211 Q238.9299966430664,93.8721859741211 236.0499966430664,93.8721859741211 zM294.98999664306643,93.8721859741211 L294.98999664306643,93.8721859741211 L294.98999664306643,93.8721859741211 Q287.2499966430664,93.8721859741211 287.2499966430664,87.8521859741211 L287.2499966430664,87.8521859741211 L287.2499966430664,87.8521859741211 Q287.2499966430664,85.2321859741211 288.36999664306643,80.14218597412109 L288.36999664306643,80.14218597412109 L288.36999664306643,80.14218597412109 Q289.48999664306643,75.0521859741211 289.86999664306643,73.0121859741211 L289.86999664306643,73.0121859741211 L289.86999664306643,73.0121859741211 Q290.7699966430664,68.33218597412109 290.7699966430664,66.86218597412109 L290.7699966430664,66.86218597412109 L290.7699966430664,66.86218597412109 Q290.7699966430664,63.6021859741211 288.3399966430664,63.6021859741211 L288.3399966430664,63.6021859741211 L288.3399966430664,63.6021859741211 Q286.73999664306643,63.6021859741211 285.1999966430664,65.81218597412109 L285.1999966430664,65.81218597412109 L285.1999966430664,65.81218597412109 Q283.6699966430664,68.0121859741211 282.9599966430664,72.4321859741211 L282.9599966430664,72.4321859741211 L278.98999664306643,92.5921859741211 L266.5099966430664,93.8721859741211 L269.9699966430664,76.4621859741211 L269.9699966430664,76.4621859741211 Q270.5499966430664,73.58218597412109 271.05999664306637,70.3221859741211 L271.05999664306637,70.3221859741211 L271.05999664306637,70.3221859741211 Q271.5699966430664,67.0521859741211 271.5699966430664,66.5421859741211 L271.5699966430664,66.5421859741211 L271.5699966430664,66.5421859741211 Q271.5699966430664,63.6021859741211 269.3899966430664,63.6021859741211 L269.3899966430664,63.6021859741211 L269.3899966430664,63.6021859741211 Q267.9199966430664,63.6021859741211 266.3199966430664,65.7721859741211 L266.3199966430664,65.7721859741211 L266.3199966430664,65.7721859741211 Q264.7199966430664,67.9521859741211 263.8299966430664,72.4321859741211 L263.8299966430664,72.4321859741211 L259.9199966430664,92.5921859741211 L247.3099966430664,93.8721859741211 L254.0299966430664,59.95218597412109 L264.4699966430664,58.67218597412109 L263.3799966430664,65.13218597412109 L263.3799966430664,65.13218597412109 Q265.0399966430664,61.6821859741211 268.10999664306644,60.17218597412109 L268.10999664306644,60.17218597412109 L268.10999664306644,60.17218597412109 Q271.18999664306637,58.67218597412109 275.98999664306643,58.67218597412109 L275.98999664306643,58.67218597412109 L275.98999664306643,58.67218597412109 Q278.73999664306643,58.67218597412109 280.5299966430664,60.012185974121095 L280.5299966430664,60.012185974121095 L280.5299966430664,60.012185974121095 Q282.3199966430664,61.36218597412109 282.8999966430664,63.53218597412109 L282.8999966430664,63.53218597412109 L282.8999966430664,63.53218597412109 Q283.98999664306643,61.2921859741211 286.7699966430664,59.982185974121094 L286.7699966430664,59.982185974121094 L286.7699966430664,59.982185974121094 Q289.5499966430664,58.67218597412109 292.97999664306644,58.67218597412109 L292.97999664306644,58.67218597412109 L292.97999664306644,58.67218597412109 Q296.3999966430664,58.67218597412109 298.09999664306645,59.412185974121094 L298.09999664306645,59.412185974121094 L298.09999664306645,59.412185974121094 Q299.7899966430664,60.14218597412109 300.8199966430664,61.36218597412109 L300.8199966430664,61.36218597412109 L300.8199966430664,61.36218597412109 Q302.5499966430664,63.6021859741211 302.5499966430664,67.69218597412109 L302.5499966430664,67.69218597412109 L302.5499966430664,67.69218597412109 Q302.5499966430664,71.7321859741211 300.8199966430664,80.11218597412109 L300.8199966430664,80.11218597412109 L300.8199966430664,80.11218597412109 Q299.9199966430664,84.2121859741211 299.9199966430664,85.7121859741211 L299.9199966430664,85.7121859741211 L299.9199966430664,85.7121859741211 Q299.9199966430664,87.2121859741211 300.7899966430664,88.11218597412109 L300.7899966430664,88.11218597412109 L300.7899966430664,88.11218597412109 Q301.6499966430664,89.0121859741211 302.9299966430664,89.1321859741211 L302.9299966430664,89.1321859741211 L302.9299966430664,89.1321859741211 Q302.2899966430664,91.31218597412109 300.0799966430664,92.5921859741211 L300.0799966430664,92.5921859741211 L300.0799966430664,92.5921859741211 Q297.86999664306643,93.8721859741211 294.98999664306643,93.8721859741211 zM333.7799966430664,81.7721859741211 L333.7799966430664,81.7721859741211 L333.7799966430664,81.7721859741211 Q335.3799966430664,82.86218597412109 335.3799966430664,85.2621859741211 L335.3799966430664,85.2621859741211 L335.3799966430664,85.2621859741211 Q335.3799966430664,87.66218597412109 334.1599966430664,89.2021859741211 L334.1599966430664,89.2021859741211 L334.1599966430664,89.2021859741211 Q332.9499966430664,90.7321859741211 330.9599966430664,91.7621859741211 L330.9599966430664,91.7621859741211 L330.9599966430664,91.7621859741211 Q326.86999664306643,93.8721859741211 322.4499966430664,93.8721859741211 L322.4499966430664,93.8721859741211 L322.4499966430664,93.8721859741211 Q318.0299966430664,93.8721859741211 315.4399966430664,92.91218597412109 L315.4399966430664,92.91218597412109 L315.4399966430664,92.91218597412109 Q312.84999664306645,91.9521859741211 311.11999664306643,90.16218597412109 L311.11999664306643,90.16218597412109 L311.11999664306643,90.16218597412109 Q307.72999664306644,86.7721859741211 307.72999664306644,80.56218597412109 L307.72999664306644,80.56218597412109 L307.72999664306644,80.56218597412109 Q307.72999664306644,70.89218597412109 312.97999664306644,65.0121859741211 L312.97999664306644,65.0121859741211 L312.97999664306644,65.0121859741211 Q318.6099966430664,58.67218597412109 328.3999966430664,58.67218597412109 L328.3999966430664,58.67218597412109 L328.3999966430664,58.67218597412109 Q334.4799966430664,58.67218597412109 337.48999664306643,61.232185974121094 L337.48999664306643,61.232185974121094 L337.48999664306643,61.232185974121094 Q339.7299966430664,63.152185974121096 339.7299966430664,66.2921859741211 L339.7299966430664,66.2921859741211 L339.7299966430664,66.2921859741211 Q339.7299966430664,77.5521859741211 320.2699966430664,77.5521859741211 L320.2699966430664,77.5521859741211 L320.2699966430664,77.5521859741211 Q320.0199966430664,79.2121859741211 320.0199966430664,80.6221859741211 L320.0199966430664,80.6221859741211 L320.0199966430664,80.6221859741211 Q320.0199966430664,83.5721859741211 321.3299966430664,84.69218597412109 L321.3299966430664,84.69218597412109 L321.3299966430664,84.69218597412109 Q322.6399966430664,85.81218597412109 325.0699966430664,85.81218597412109 L325.0699966430664,85.81218597412109 L325.0699966430664,85.81218597412109 Q327.5099966430664,85.81218597412109 330.0999966430664,84.69218597412109 L330.0999966430664,84.69218597412109 L330.0999966430664,84.69218597412109 Q332.6899966430664,83.5721859741211 333.7799966430664,81.7721859741211 zM320.7199966430664,74.8021859741211 L320.7199966430664,74.8021859741211 L320.7199966430664,74.8021859741211 Q325.2699966430664,74.8021859741211 327.8899966430664,71.9821859741211 L327.8899966430664,71.9821859741211 L327.8899966430664,71.9821859741211 Q330.5099966430664,69.2921859741211 330.5099966430664,65.0121859741211 L330.5099966430664,65.0121859741211 L330.5099966430664,65.0121859741211 Q330.5099966430664,63.53218597412109 329.9699966430664,62.732185974121094 L329.9699966430664,62.732185974121094 L329.9699966430664,62.732185974121094 Q329.42999664306643,61.9321859741211 328.3399966430664,61.9321859741211 L328.3399966430664,61.9321859741211 L328.3399966430664,61.9321859741211 Q327.2499966430664,61.9321859741211 326.3199966430664,62.3521859741211 L326.3199966430664,62.3521859741211 L326.3199966430664,62.3521859741211 Q325.3899966430664,62.77218597412109 324.42999664306643,64.17218597412109 L324.42999664306643,64.17218597412109 L324.42999664306643,64.17218597412109 Q322.0699966430664,67.3721859741211 320.7199966430664,74.8021859741211 zM361.9399966430664,74.61218597412109 L361.9399966430664,74.61218597412109 L361.9399966430664,74.61218597412109 Q364.23999664306643,70.5121859741211 364.23999664306643,66.3521859741211 L364.23999664306643,66.3521859741211 L364.23999664306643,66.3521859741211 Q364.23999664306643,63.6021859741211 362.2599966430664,63.6021859741211 L362.2599966430664,63.6021859741211 L362.2599966430664,63.6021859741211 Q360.7199966430664,63.6021859741211 359.11999664306643,66.22218597412109 L359.11999664306643,66.22218597412109 L359.11999664306643,66.22218597412109 Q357.4599966430664,68.8521859741211 356.9499966430664,72.2421859741211 L356.9499966430664,72.2421859741211 L353.61999664306643,92.5921859741211 L340.36999664306643,93.8721859741211 L346.8999966430664,59.95218597412109 L357.4599966430664,58.67218597412109 L356.3099966430664,65.13218597412109 L356.3099966430664,65.13218597412109 Q359.4399966430664,58.67218597412109 366.4799966430664,58.67218597412109 L366.4799966430664,58.67218597412109 L366.4799966430664,58.67218597412109 Q370.1899966430664,58.67218597412109 372.2099966430664,60.592185974121094 L372.2099966430664,60.592185974121094 L372.2099966430664,60.592185974121094 Q374.2299966430664,62.512185974121095 374.2299966430664,66.4521859741211 L374.2299966430664,66.4521859741211 L374.2299966430664,66.4521859741211 Q374.2299966430664,70.38218597412109 371.6299966430664,72.88218597412109 L371.6299966430664,72.88218597412109 L371.6299966430664,72.88218597412109 Q369.0399966430664,75.3721859741211 364.6299966430664,75.3721859741211 L364.6299966430664,75.3721859741211 L364.6299966430664,75.3721859741211 Q362.7099966430664,75.3721859741211 361.9399966430664,74.61218597412109 zM406.6699966430664,65.97218597412109 L406.6699966430664,65.97218597412109 L406.6699966430664,65.97218597412109 Q406.6699966430664,68.6521859741211 404.42999664306643,70.3221859741211 L404.42999664306643,70.3221859741211 L404.42999664306643,70.3221859741211 Q402.1899966430664,71.9821859741211 398.5499966430664,71.9821859741211 L398.5499966430664,71.9821859741211 L398.5499966430664,71.9821859741211 Q397.0099966430664,71.9821859741211 396.1099966430664,71.53218597412109 L396.1099966430664,71.53218597412109 L396.1099966430664,71.53218597412109 Q396.8199966430664,69.8721859741211 397.0399966430664,67.7921859741211 L397.0399966430664,67.7921859741211 L397.0399966430664,67.7921859741211 Q397.2699966430664,65.7121859741211 397.2699966430664,65.13218597412109 L397.2699966430664,65.13218597412109 L397.2699966430664,65.13218597412109 Q397.2699966430664,62.45218597412109 395.4099966430664,62.45218597412109 L395.4099966430664,62.45218597412109 L395.4099966430664,62.45218597412109 Q394.1299966430664,62.45218597412109 392.6899966430664,64.0521859741211 L392.6899966430664,64.0521859741211 L392.6899966430664,64.0521859741211 Q391.2499966430664,65.6521859741211 390.0299966430664,68.14218597412109 L390.0299966430664,68.14218597412109 L390.0299966430664,68.14218597412109 Q387.3499966430664,73.9021859741211 387.3499966430664,79.7321859741211 L387.3499966430664,79.7321859741211 L387.3499966430664,79.7321859741211 Q387.3499966430664,82.9321859741211 388.5599966430664,84.3721859741211 L388.5599966430664,84.3721859741211 L388.5599966430664,84.3721859741211 Q389.7799966430664,85.81218597412109 392.4699966430664,85.81218597412109 L392.4699966430664,85.81218597412109 L392.4699966430664,85.81218597412109 Q396.17999664306643,85.81218597412109 399.11999664306643,82.7321859741211 L399.11999664306643,82.7321859741211 L399.11999664306643,82.7321859741211 Q399.9499966430664,81.7721859741211 400.3999966430664,80.69218597412109 L400.3999966430664,80.69218597412109 L400.3999966430664,80.69218597412109 Q402.8299966430664,81.97218597412109 402.8299966430664,85.4921859741211 L402.8299966430664,85.4921859741211 L402.8299966430664,85.4921859741211 Q402.8299966430664,89.0721859741211 398.86999664306643,91.44218597412109 L398.86999664306643,91.44218597412109 L398.86999664306643,91.44218597412109 Q394.7699966430664,93.8721859741211 388.23999664306643,93.8721859741211 L388.23999664306643,93.8721859741211 L388.23999664306643,93.8721859741211 Q375.2499966430664,93.8721859741211 375.2499966430664,80.11218597412109 L375.2499966430664,80.11218597412109 L375.2499966430664,80.11218597412109 Q375.2499966430664,70.06218597412109 380.9499966430664,64.3021859741211 L380.9499966430664,64.3021859741211 L380.9499966430664,64.3021859741211 Q386.4499966430664,58.67218597412109 396.5599966430664,58.67218597412109 L396.5599966430664,58.67218597412109 L396.5599966430664,58.67218597412109 Q406.6699966430664,58.67218597412109 406.6699966430664,65.97218597412109 zM434.3199966430664,81.7721859741211 L434.3199966430664,81.7721859741211 L434.3199966430664,81.7721859741211 Q435.9199966430664,82.86218597412109 435.9199966430664,85.2621859741211 L435.9199966430664,85.2621859741211 L435.9199966430664,85.2621859741211 Q435.9199966430664,87.66218597412109 434.7099966430664,89.2021859741211 L434.7099966430664,89.2021859741211 L434.7099966430664,89.2021859741211 Q433.48999664306643,90.7321859741211 431.5099966430664,91.7621859741211 L431.5099966430664,91.7621859741211 L431.5099966430664,91.7621859741211 Q427.4099966430664,93.8721859741211 422.98999664306643,93.8721859741211 L422.98999664306643,93.8721859741211 L422.98999664306643,93.8721859741211 Q418.5799966430664,93.8721859741211 415.98999664306643,92.91218597412109 L415.98999664306643,92.91218597412109 L415.98999664306643,92.91218597412109 Q413.3899966430664,91.9521859741211 411.6699966430664,90.16218597412109 L411.6699966430664,90.16218597412109 L411.6699966430664,90.16218597412109 Q408.2699966430664,86.7721859741211 408.2699966430664,80.56218597412109 L408.2699966430664,80.56218597412109 L408.2699966430664,80.56218597412109 Q408.2699966430664,70.89218597412109 413.5199966430664,65.0121859741211 L413.5199966430664,65.0121859741211 L413.5199966430664,65.0121859741211 Q419.1499966430664,58.67218597412109 428.9499966430664,58.67218597412109 L428.9499966430664,58.67218597412109 L428.9499966430664,58.67218597412109 Q435.0299966430664,58.67218597412109 438.0299966430664,61.232185974121094 L438.0299966430664,61.232185974121094 L438.0299966430664,61.232185974121094 Q440.2699966430664,63.152185974121096 440.2699966430664,66.2921859741211 L440.2699966430664,66.2921859741211 L440.2699966430664,66.2921859741211 Q440.2699966430664,77.5521859741211 420.8199966430664,77.5521859741211 L420.8199966430664,77.5521859741211 L420.8199966430664,77.5521859741211 Q420.5599966430664,79.2121859741211 420.5599966430664,80.6221859741211 L420.5599966430664,80.6221859741211 L420.5599966430664,80.6221859741211 Q420.5599966430664,83.5721859741211 421.86999664306643,84.69218597412109 L421.86999664306643,84.69218597412109 L421.86999664306643,84.69218597412109 Q423.1899966430664,85.81218597412109 425.61999664306643,85.81218597412109 L425.61999664306643,85.81218597412109 L425.61999664306643,85.81218597412109 Q428.0499966430664,85.81218597412109 430.6399966430664,84.69218597412109 L430.6399966430664,84.69218597412109 L430.6399966430664,84.69218597412109 Q433.2299966430664,83.5721859741211 434.3199966430664,81.7721859741211 zM421.2699966430664,74.8021859741211 L421.2699966430664,74.8021859741211 L421.2699966430664,74.8021859741211 Q425.8099966430664,74.8021859741211 428.42999664306643,71.9821859741211 L428.42999664306643,71.9821859741211 L428.42999664306643,71.9821859741211 Q431.0599966430664,69.2921859741211 431.0599966430664,65.0121859741211 L431.0599966430664,65.0121859741211 L431.0599966430664,65.0121859741211 Q431.0599966430664,63.53218597412109 430.5099966430664,62.732185974121094 L430.5099966430664,62.732185974121094 L430.5099966430664,62.732185974121094 Q429.9699966430664,61.9321859741211 428.8799966430664,61.9321859741211 L428.8799966430664,61.9321859741211 L428.8799966430664,61.9321859741211 Q427.7899966430664,61.9321859741211 426.86999664306643,62.3521859741211 L426.86999664306643,62.3521859741211 L426.86999664306643,62.3521859741211 Q425.9399966430664,62.77218597412109 424.9799966430664,64.17218597412109 L424.9799966430664,64.17218597412109 L424.9799966430664,64.17218597412109 Q422.6099966430664,67.3721859741211 421.2699966430664,74.8021859741211 z" fill="#919191" id="svg_3" fill-opacity="1"/></g></g></g></svg>