<svg xmlns="http://www.w3.org/2000/svg" version="1.0" width="225" height="225" preserveAspectRatio="xMidYMid meet"><rect id="backgroundrect" width="100%" height="100%" x="0" y="0" fill="none" stroke="none"/>


<g class="currentLayer" style=""><title>Layer 1</title><g transform="translate(0,225) scale(0.10000000149011612,-0.10000000149011612) " fill="#56ccf2" stroke="none" id="svg_1" class="" fill-opacity="1">
<path d="M147 1985 c-157 -55 -164 -267 -12 -336 38 -18 90 -19 990 -19 900 0 952 1 990 19 157 71 142 295 -23 341 -24 6 -358 10 -972 10 -766 -1 -942 -3 -973 -15z" id="svg_2" fill="#56ccf2" fill-opacity="1"/>
<path d="M147 1295 c-129 -45 -164 -200 -68 -296 20 -20 54 -42 76 -48 56 -15 1884 -15 1940 0 53 15 110 73 125 128 25 95 -32 194 -128 221 -24 6 -358 10 -972 10 -766 -1 -942 -3 -973 -15z" id="svg_3" fill="#56ccf2" fill-opacity="1"/>
<path d="M135 601 c-157 -71 -142 -295 23 -341 51 -14 1883 -14 1934 0 165 46 180 270 23 341 -38 18 -90 19 -990 19 -900 0 -952 -1 -990 -19z" id="svg_4" fill="#56ccf2" fill-opacity="1"/>
</g></g></svg>