<svg xmlns="http://www.w3.org/2000/svg" version="1.0" width="512.000000" height="512.000000" preserveAspectRatio="xMidYMid meet"><rect id="backgroundrect" width="100%" height="100%" x="0" y="0" fill="none" stroke="none"/>


<g class="currentLayer" style=""><title>Layer 1</title><g transform="translate(0,512) scale(0.10000000149011612,-0.10000000149011612) " fill="#6d6d6d" stroke="none" id="svg_1" class="selected" fill-opacity="1">
<path d="M1340 5111 c-118 -36 -200 -156 -187 -272 3 -27 14 -66 23 -86 11 -25 377 -398 1093 -1116 l1076 -1077 -1076 -1078 c-716 -717 -1082 -1090 -1093 -1115 -61 -135 4 -296 140 -347 66 -24 114 -25 180 -4 45 15 146 113 1242 1208 1095 1093 1194 1195 1212 1244 11 29 20 70 20 92 0 22 -9 63 -20 92 -18 49 -117 151 -1212 1244 -1096 1095 -1197 1193 -1242 1208 -52 17 -114 20 -156 7z" id="svg_2" fill="#6d6d6d" fill-opacity="1"/>
</g></g></svg>