<svg xmlns="http://www.w3.org/2000/svg" version="1.0" width="1280.000000" height="1280.000000" preserveAspectRatio="xMidYMid meet"><rect id="backgroundrect" width="100%" height="100%" x="0" y="0" fill="none" stroke="none"/>
<metadata>
Created by potrace 1.16, written by Peter Selinger 2001-2019
</metadata>

<g class="currentLayer" style=""><title>Layer 1</title><g transform="translate(0,1280) scale(0.10000000149011612,-0.10000000149011612) " fill="#6d6d6d" stroke="none" id="svg_1" class="selected" fill-opacity="1">
<path d="M9133 12785 c-34 -7 -77 -21 -96 -30 -81 -38 -316 -257 -982 -915 -813 -803 -4556 -4550 -4767 -4771 -279 -294 -352 -384 -378 -468 -48 -153 -48 -249 0 -402 46 -146 57 -158 2765 -2864 3034 -3033 3236 -3230 3369 -3291 119 -54 324 -58 451 -10 279 106 458 394 424 679 -16 130 -43 197 -112 278 -182 212 -1041 1082 -3597 3642 -965 966 -1755 1762 -1755 1767 0 5 707 717 1570 1582 2789 2795 3656 3672 3804 3853 55 66 82 152 88 281 7 128 -13 224 -70 337 -126 253 -430 394 -714 332z" id="svg_2" fill="#6d6d6d" fill-opacity="1"/>
</g></g></svg>