<svg xmlns="http://www.w3.org/2000/svg" version="1.0" width="200.000000" height="200.000000" preserveAspectRatio="xMidYMid meet" style=""><rect id="backgroundrect" width="100%" height="100%" x="0" y="0" fill="none" stroke="none"/>


<g class="currentLayer" style=""><title>Layer 1</title><g transform="translate(0,200) scale(0.10000000149011612,-0.10000000149011612) " fill="#ffffff" stroke="none" id="svg_1" class="selected" fill-opacity="1">
<path d="M568.7719297409058,1426.2280702590942 l-34,-35 l199,-200 l200,-200 l-200,-200 l-200,-200 l38,-37 l37,-38 l200,200 l200,200 l200,-200 l200,-200 l37,38 l38,37 l-200,200 l-200,200 l200,200 l200,200 l-38,37 l-37,38 l-200,-200 l-200,-200 l-198,198 c-108,108 -200,197 -203,197 c-3,0 -20,-16 -39,-35 z" id="svg_2" fill="#ffffff" fill-opacity="1"/>
</g></g></svg>